<svg width="140" height="128" viewBox="0 0 140 128" fill="none" xmlns="http://www.w3.org/2000/svg">
<path d="M16.9613 83.5677C18.7152 84.4439 21.3012 85.103 22.4105 84.9565C23.2731 84.8433 23.9827 85.1432 28.0345 87.3337C38.341 92.908 39.8349 93.303 45.8144 92.0352C48.0498 91.5613 47.943 91.5956 49.3822 90.8875C50.1287 90.52 51.0533 90.1941 51.6211 90.0995C52.855 89.8927 54.8772 90.1113 56.6488 90.643C57.4312 90.8782 58.1801 91.0257 58.3239 90.9728C58.4652 90.9204 58.6602 90.9894 58.7572 91.1262C59.0994 91.6157 62.7957 94.51 65.1527 96.1345C69.0637 98.8292 72.3435 100.462 77.2175 102.139C77.6996 102.304 78.0236 102.454 77.9389 102.472C77.8537 102.489 76.9088 102.635 75.8473 102.792C72.9767 103.22 71.9131 103.629 69.6915 105.159C68.6919 105.847 66.7303 107.359 65.3403 108.511C62.256 111.067 56.4129 115.062 55.3376 115.348C54.9909 115.44 53.8309 115.535 52.7511 115.559C50.5166 115.61 47.103 116.085 46.6323 116.412C46.2443 116.681 46.3004 116.957 46.7967 117.224C47.2896 117.487 50.7087 118.037 51.5265 117.984C52.4089 117.926 53.7802 117.535 55.0623 116.976C56.4164 116.385 56.9068 116.369 59.8074 116.818C63.9803 117.466 67.2665 117.605 69.6019 117.233C72.0544 116.842 73.4331 116.222 76.3815 114.188L78.8271 112.5C80.3417 110.72 81.8587 108.942 83.3644 107.155C85.5285 104.585 84.9356 104.761 88.7802 105.547C92.0067 106.207 95.579 106.536 102.068 106.771C102.888 106.801 103.57 106.855 103.563 106.89C103.558 106.924 102.948 107.127 102.205 107.341C99.9297 107.998 98.6731 108.593 96.7449 109.931C94.9541 111.172 92.9895 112.985 91.8861 114.417C90.762 115.876 89.5049 119.016 88.9766 121.69C88.6147 123.526 88.3533 124.096 86.9967 126.011C86.0223 127.384 85.88 127.851 86.3887 127.993C86.66 128.068 87.3641 127.613 92.6582 123.936C95.9374 121.658 99.1615 119.342 99.8204 118.792C102.085 116.899 102.965 115.605 103.578 113.262C104.215 110.823 104.424 110.246 104.989 109.378C105.626 108.4 105.913 108.172 106.738 107.999C107.582 107.819 110.056 107.714 111.434 107.799C112.088 107.839 115.824 108.501 119.757 109.274C130.1 111.306 132.063 111.651 135.277 111.995C137.002 111.966 138.569 111.914 140.001 111.842L140.001 111.661C136.024 111.262 132.183 110.793 130.618 110.503C129.566 110.307 126.719 109.65 124.305 109.047C121.89 108.443 118.709 107.682 117.247 107.359C115.193 106.904 110.205 107.107 109.043 105.555C108.141 104.35 107.548 103.169 107.196 101.881C106.772 100.325 104.729 94.6638 104.291 93.8307C104.079 93.4284 103.673 92.7923 103.397 92.4317C102.515 91.281 99.4496 88.0977 98.0153 86.8441C96.6794 85.6763 96.1979 85.3416 91.6542 82.4195C90.4474 81.6433 89.052 80.7161 88.533 80.3461C87.629 79.7022 87.1784 79.5978 87.1942 80.0344C87.1981 80.1368 87.4975 80.7131 87.852 81.3007C88.5561 82.4665 88.9441 83.477 89.5005 85.5921C89.7728 86.6295 90.1834 87.6669 91.5134 90.6846L93.185 94.4742L94.6228 96.5324C95.898 98.3578 97.2895 100.146 97.8651 100.699C100.818 103.53 102.342 104.393 105.25 105.571C104.235 105.42 103.303 105.317 102.801 105.309C101.971 105.295 99.7918 105.18 97.9734 105.054C96.1551 104.927 94.09 104.789 93.3972 104.747C91.8354 104.653 85.1429 103.311 83.1291 102.689C80.2472 101.798 78.4529 101.025 77.2156 100.141C75.8591 99.1703 75.2667 98.4382 74.6335 96.9509C74.1111 95.7194 74.0742 95.099 74.4026 92.9643C74.766 90.6048 75.2027 88.2751 75.8507 84.8266C76.5056 81.3487 76.9285 77.7988 76.9009 76.0165C76.8862 74.9801 76.2564 72.7239 75.5203 71.0675C74.892 69.6547 74.2465 68.7677 72.3075 66.6493C69.0514 63.0925 68.1769 62.0727 66.2542 59.5887C64.1084 56.8184 63.5707 56.2779 63.0286 56.3455C62.709 56.3852 62.6553 56.52 62.5416 57.5618C62.4702 58.2033 62.2634 59.4255 62.0847 60.26C60.9591 65.507 60.3126 70.6368 60.2998 74.4528C60.2963 75.2623 60.2722 76.6482 60.2437 77.4994C60.2161 78.3521 60.2702 79.564 60.3618 80.1662C60.6779 82.2333 60.8951 82.6268 61.4416 84.8977C61.996 86.7804 63.2462 88.9239 65.1768 91.306C67.2478 93.8621 68.7249 95.2519 71.7565 97.5017C73.1879 98.5646 74.3317 99.4379 74.31 99.4521C74.1618 99.555 71.2971 98.2461 69.563 97.2817C62.7184 93.4764 55.699 87.2862 50.7215 80.6646C50.5019 80.3726 50.2793 79.9134 50.2163 79.6267C50.1444 79.2954 50.334 76.583 50.6097 76.6497L50.6097 76.4796L50.653 76.4796L50.7392 76.2224L50.7825 76.2224L50.7825 76.1797L50.8254 76.1797C50.8254 75.9994 50.9115 76.1028 50.9115 75.9224L50.9549 75.8798L50.9549 75.7509L51.0189 75.7029C50.9416 75.6441 50.9017 75.6064 50.9041 75.5931C50.911 75.5588 51.3547 74.7747 51.885 73.8588C53.4931 71.0832 54.6522 67.1667 55.0003 63.3346C55.1209 62.0105 55.3277 60.1895 55.4641 59.2544C55.8098 56.8914 55.7881 55.6418 55.3445 52.1002C54.9678 49.1026 54.7817 46.1065 54.8747 44.5574C54.9082 44.0154 55.1874 43.3294 55.9432 41.9361C57.4469 39.1669 57.5385 38.8185 57.248 36.9881C57.1146 36.1379 56.9595 35.3867 56.9009 35.3043C56.7113 35.0323 56.4257 35.3695 56.1062 36.2418C55.9407 36.6966 55.5813 37.512 55.3021 38.0697C55.0047 38.6631 54.598 40.0132 54.3105 41.3574C54.0406 42.6193 53.7225 43.767 53.597 43.9272C52.9367 44.7711 49.5388 50.9672 48.5865 53.0627C46.9395 56.689 45.8183 60.9044 45.6888 63.9555C45.5968 66.1298 45.7164 69.148 45.9611 70.8387C46.1605 72.2187 46.1527 72.2995 45.8415 72.0324C45.1522 71.439 43.1033 67.7293 41.641 64.4289C40.8448 62.6304 39.9166 60.5786 39.571 59.8479C39.2253 59.1207 38.3981 57.1056 37.7364 55.3791C37.0746 53.6537 36.3877 51.9459 36.2134 51.594C35.9111 50.9849 35.917 50.9182 36.341 50.2199C36.7748 49.502 36.8727 49.4256 40.9767 46.572L45.1679 43.6577L46.0699 42.4208C47.7411 40.1298 48.4935 37.8732 48.5442 35.0059C48.558 34.1909 48.4201 31.2962 48.2384 28.572C47.8548 22.84 47.7687 19.6571 47.94 17.5788C48.2064 14.3435 47.778 14.2107 45.8011 16.9143C45.1167 17.8493 43.998 19.2156 43.2934 19.9761C39.7739 23.7725 38.151 26.1414 36.2799 30.2098C34.7816 33.4657 33.4645 39.5192 33.5319 42.8354C33.5551 43.9488 33.5093 44.6814 33.431 44.4795C33.3517 44.2796 32.8815 43.2313 32.3857 42.1493C31.8884 41.0644 31.0616 39.1051 30.5412 37.7815C29.4452 34.9873 29.065 34.1885 27.7248 31.8666C26.9542 30.5318 26.708 29.9746 26.6233 29.3718C26.4451 28.1031 25.4539 24.0171 24.8207 21.9388C23.9846 19.194 21.8536 14.517 20.3341 12.0898C18.6935 9.46851 15.3753 6.07199 12.8839 4.4612C10.645 3.01409 7.32194 1.65568 4.43559 1.00539C3.34694 0.760849 2.12435 0.41291 1.74768 0.239433C0.990888 -0.10556 0.570394 -0.0771332 0.50343 0.324211C0.478318 0.474167 0.933279 1.93403 1.51331 3.56736C2.09333 5.20118 2.81024 7.36963 3.10567 8.38697C3.85803 10.9764 5.1077 14.8512 5.6695 16.3292C6.04962 17.3284 6.48735 18.0943 7.88375 20.2015C9.98474 23.3726 10.3614 23.7142 13.2158 25.0393C15.6959 26.1894 16.8663 26.5232 19.2932 26.7726C20.9954 26.9475 21.5045 27.072 22.343 27.5248C24.1235 28.4853 24.1683 28.5377 25.9532 31.7255C27.7464 34.9255 28.0621 35.5655 28.9808 37.8452C29.3334 38.7209 29.9582 40.2038 30.3684 41.1408C30.7795 42.0797 31.3034 43.3553 31.1404 43.0618C28.5638 38.424 26.5593 35.4283 24.0619 33.2942C22.4356 31.9039 21.6695 31.404 19.9348 30.6004C19.2327 30.2755 17.8432 29.607 16.8618 29.1209C15.8776 28.6338 13.0528 27.3362 10.5968 26.2424C7.86553 25.0261 5.46467 23.8441 4.42772 23.206C3.12635 22.4058 2.67582 22.199 2.49807 22.3225C2.30259 22.4582 2.33263 22.566 2.69552 23.0183C2.93334 23.3124 4.41491 25.3995 5.99891 27.6699C9.06349 32.0622 10.6042 34.0263 12.9587 36.5461C15.9726 39.7697 17.8565 41.2525 21.601 43.348C23.9211 44.6456 25.9867 45.4963 28.5032 46.1898C30.5673 46.7607 31.7298 47.1659 32.5846 47.6202L33.2212 47.9564C34.3517 50.5835 35.4473 53.2068 36.4971 55.8687C37.2701 57.8313 38.5173 60.7903 39.2746 62.4584C40.0294 64.1206 40.7586 65.7441 40.8921 66.0583C41.055 66.4444 42.45 69.9718 39.2539 63.9535C37.0943 60.878 35.2523 58.7649 33.1213 56.9125C24.0255 49.0144 20.4676 51.4945 13.6446 50.2508C12.0202 49.9548 10.9646 49.5157 7.86307 47.8525C4.34056 45.9624 0.555624 44.4011 0.160241 44.6755C-0.103676 44.8588 -0.0879193 44.9029 0.564487 45.7845C0.936728 46.2863 1.8885 47.3835 2.6709 48.2117C5.61387 51.3196 8.67993 54.3794 11.1374 57.8931C13.0739 60.6609 16.9416 65.0757 18.9264 66.7865C20.2819 67.9538 21.7645 68.8182 23.7729 69.6101C25.482 70.2844 26.7824 70.5231 29.2039 70.6079C31.492 70.6877 32.1547 70.6172 33.6481 70.1281C35.3434 69.5739 37.7226 68.8751 38.3863 68.7378C38.7128 68.6702 39.2268 68.7575 39.7049 68.9633C40.1343 69.1475 40.7261 69.3734 41.0132 69.4641C41.3027 69.5543 42.0103 69.9762 42.5927 70.405L43.6484 71.1822C44.9636 73.4203 46.2772 75.6568 47.5505 77.9189C48.9829 80.4617 51.2385 83.5843 53.1214 85.6283C53.7245 86.283 54.2105 86.8383 54.2046 86.8677C54.1987 86.8966 53.9062 86.7236 53.5556 86.4844C53.2031 86.2448 52.3783 85.7543 51.7225 85.3951C49.3379 84.0896 47.5619 83.6343 43.0556 83.1756C38.8103 82.7434 38.0106 82.7199 35.7437 82.9585C33.6668 83.1771 31.9253 83.1903 29.2674 83.0066C26.9207 82.8439 26.3358 82.8914 24.5499 83.3898C23.383 83.7157 22.9605 83.7573 22.3686 83.6079C21.9644 83.5059 21.1145 83.3966 20.4779 83.3648C19.3799 83.3104 17.7087 82.9448 17.0746 82.6209C16.7299 82.4445 16.238 82.812 16.3946 83.1296C16.4522 83.2467 16.6979 83.4378 16.9623 83.5691L16.9613 83.5677Z" fill="#9E8C73"/>
</svg>
