<svg width="20" height="20" viewBox="0 0 20 20" fill="none" xmlns="http://www.w3.org/2000/svg">
<path d="M7.2327 20V16.2869H12.7673V20H16.9384V0H3.06104V20H7.2327ZM12.7673 1.8373H15.1017V4.17167H12.7673V1.8373ZM12.7673 5.23085H15.1017V7.56584H12.7673V5.23085ZM12.7673 8.62502H15.1017V10.9588H12.7673V8.62502ZM12.7673 12.0179H15.1017V14.3536H12.7673V12.0179ZM8.83316 1.8373H11.1682V4.17167H8.83316V1.8373ZM8.83316 5.23085H11.1682V7.56584H8.83316V5.23085ZM8.83316 8.62502H11.1682V10.9588H8.83316V8.62502ZM8.83316 12.0179H11.1682V14.3536H8.83316V12.0179ZM4.89897 1.8373H7.23333V4.17167H4.89897V1.8373ZM4.89897 5.23085H7.23333V7.56584H4.89897V5.23085ZM4.89897 8.62502H7.23333V10.9588H4.89897V8.62502ZM4.89897 12.0179H7.23333V14.3536H4.89897V12.0179Z" fill="white"/>
</svg>
