<svg width="1401" height="1649" viewBox="0 0 1401 1649" fill="none" xmlns="http://www.w3.org/2000/svg">
<path fill-rule="evenodd" clip-rule="evenodd" d="M2664.32 1648.31H1017.77V0.682098H2664.32V1648.31Z" stroke="#E0E0E0" stroke-miterlimit="10" stroke-linecap="round" stroke-linejoin="round"/>
<path fill-rule="evenodd" clip-rule="evenodd" d="M1017.77 1018.43H0.689046V0.684799H1017.77V1018.43Z" stroke="#E0E0E0" stroke-miterlimit="10" stroke-linecap="round" stroke-linejoin="round"/>
<path fill-rule="evenodd" clip-rule="evenodd" d="M630.303 1648.31H0.68835V1018.39H630.197L630.303 1648.31Z" stroke="#E0E0E0" stroke-miterlimit="10" stroke-linecap="round" stroke-linejoin="round"/>
<path fill-rule="evenodd" clip-rule="evenodd" d="M1017.77 1648.31H630.302L630.196 1260.63L1017.77 1260.59V1648.31Z" stroke="#E0E0E0" stroke-miterlimit="10" stroke-linecap="round" stroke-linejoin="round"/>
<path fill-rule="evenodd" clip-rule="evenodd" d="M1017.77 1260.59H776.045V1018.44H1017.77V1260.59Z" stroke="#E0E0E0" stroke-miterlimit="10" stroke-linecap="round" stroke-linejoin="round"/>
<path fill-rule="evenodd" clip-rule="evenodd" d="M776.044 1164.38H630.197V1018.44H776.044V1164.38Z" stroke="#E0E0E0" stroke-miterlimit="10" stroke-linecap="round" stroke-linejoin="round"/>
<path fill-rule="evenodd" clip-rule="evenodd" d="M726.631 1260.62L630.195 1260.63V1164.39H726.631V1260.62Z" stroke="#E0E0E0" stroke-miterlimit="10" stroke-linecap="round" stroke-linejoin="round"/>
<path fill-rule="evenodd" clip-rule="evenodd" d="M776.047 1260.59L726.633 1260.62V1211.18H776.045L776.047 1260.59Z" stroke="#E0E0E0" stroke-miterlimit="10" stroke-linecap="round" stroke-linejoin="round"/>
<path d="M726.632 1260.62C751.915 1260.61 776.046 1240.52 776.044 1211.17" stroke="#E0E0E0" stroke-miterlimit="1" stroke-linecap="square"/>
<path d="M630.196 1162.48C630.196 1218.76 674.673 1260.62 726.633 1260.62" stroke="#E0E0E0" stroke-miterlimit="1" stroke-linecap="square"/>
<path d="M776.047 1018.44C694.282 1018.44 630.197 1082.57 630.197 1164.38" stroke="#E0E0E0" stroke-miterlimit="1" stroke-linecap="square"/>
<path d="M1017.77 1260.59C1017.77 1128.2 908.355 1018.44 776.045 1018.44" stroke="#E0E0E0" stroke-miterlimit="1" stroke-linecap="square"/>
<path d="M630.303 1648.31C844.398 1648.31 1017.77 1474.83 1017.77 1260.59" stroke="#E0E0E0" stroke-miterlimit="1" stroke-linecap="square"/>
<path d="M0.689562 1018.43C0.689562 1365.08 283.881 1648.32 630.303 1648.32" stroke="#E0E0E0" stroke-miterlimit="1" stroke-linecap="square"/>
<path d="M1017.77 0.684799C457.208 0.684799 0.689046 457.503 0.689046 1018.43" stroke="#E0E0E0" stroke-miterlimit="1" stroke-linecap="square"/>
<path d="M2664.32 1648.31C2664.32 740.663 1924.82 0.682098 1017.77 0.682098" stroke="#E0E0E0" stroke-miterlimit="1" stroke-linecap="square"/>
<path d="M776.044 1211.18C776.046 1185.49 750.154 1164.39 726.632 1164.39" stroke="#E0E0E0" stroke-miterlimit="22.9256"/>
</svg>
