<svg width="19" height="19" viewBox="0 0 19 19" fill="none" xmlns="http://www.w3.org/2000/svg">
<g clip-path="url(#clip0)">
<path d="M17.3304 2.26367H1.67027C1.41321 2.26367 1.17255 2.32687 0.954834 2.43104L9.46323 10.9394L11.3702 9.10671C11.3702 9.10671 11.3704 9.10653 11.3704 9.10646C11.3705 9.10638 11.3706 9.10631 11.3706 9.10631L18.0461 2.43118C17.8284 2.32694 17.5876 2.26367 17.3304 2.26367Z" fill="#9E8C73"/>
<path d="M18.833 3.21851L12.551 9.50016L18.8328 15.7819C18.937 15.5642 19.0001 15.3235 19.0001 15.0665V3.93368C19.0001 3.67677 18.9371 3.43615 18.833 3.21851Z" fill="#9E8C73"/>
<path d="M0.167363 3.21826C0.0631973 3.43598 0 3.67664 0 3.93369V15.0665C0 15.3234 0.063123 15.5641 0.167215 15.7818L6.4492 9.5001L0.167363 3.21826Z" fill="#9E8C73"/>
<path d="M11.7636 10.2872L9.85634 12.1201C9.74761 12.2289 9.60519 12.2832 9.4628 12.2832C9.32041 12.2832 9.17795 12.2289 9.06925 12.1201L7.2362 10.2871L0.954102 16.5688C1.17186 16.673 1.41266 16.7363 1.66979 16.7363H17.33C17.587 16.7363 17.8277 16.6731 18.0454 16.5689L11.7636 10.2872Z" fill="#9E8C73"/>
</g>
<defs>
<clipPath id="clip0">
<rect width="19" height="19" fill="white"/>
</clipPath>
</defs>
</svg>
