<svg width="55" height="54" viewBox="0 0 55 54" fill="none" xmlns="http://www.w3.org/2000/svg">
<path d="M29.2463 32.2548L29.3521 31.2324L30.0912 31.9468L42.312 43.7589L32.7676 29.7116L32.1877 28.8581L33.2169 28.9319L50.1851 30.1484L33.8239 25.5059L32.8299 25.2239L33.6679 24.6194L47.4519 14.6765L31.9205 21.6071L30.9801 22.0267L31.2319 21.0283L35.3828 4.56878L27.9496 19.8393L27.5 20.7629L27.0505 19.8393L19.6172 4.56879L23.7681 21.0282L24.02 22.0267L23.0796 21.6071L7.54814 14.6765L21.3321 24.6194L22.1701 25.2239L21.1761 25.5059L4.81487 30.1484L21.7831 28.9319L22.8123 28.8581L22.2324 29.7116L12.688 43.759L24.9089 31.9468L25.648 31.2324L25.7537 32.2548L27.5 49.1398L29.2463 32.2548Z" stroke="#9E8C73"/>
</svg>
